<svg xmlns="http://www.w3.org/2000/svg" xmlns:xlink="http://www.w3.org/1999/xlink" width="1024" zoomAndPan="magnify" viewBox="0 0 768 576" height="768" preserveAspectRatio="xMidYMid meet" version="1.0"><defs><filter x="0%" y="0%" width="100%" height="100%" id="c565634287"><feColorMatrix values="0 0 0 0 1 0 0 0 0 1 0 0 0 0 1 0 0 0 1 0" color-interpolation-filters="sRGB"/></filter><g/><clipPath id="1c1fe2a6ac"><path d="M 124.554688 128.941406 L 661.125 128.941406 L 661.125 129.554688 L 124.554688 129.554688 Z M 124.554688 128.941406 " clip-rule="nonzero"/></clipPath><mask id="04844f6669"><g filter="url(#c565634287)"><rect x="-76.8" width="921.6" fill="#000000" y="-57.6" height="691.2" fill-opacity="0.2471"/></g></mask><clipPath id="45040535db"><path d="M 0.554688 0.941406 L 537 0.941406 L 537 1.554688 L 0.554688 1.554688 Z M 0.554688 0.941406 " clip-rule="nonzero"/></clipPath><clipPath id="f402e654bb"><rect x="0" width="538" y="0" height="2"/></clipPath><clipPath id="d71efa0b0a"><path d="M 124.554688 233.945312 L 661.125 233.945312 L 661.125 234.558594 L 124.554688 234.558594 Z M 124.554688 233.945312 " clip-rule="nonzero"/></clipPath><mask id="d3074cad42"><g filter="url(#c565634287)"><rect x="-76.8" width="921.6" fill="#000000" y="-57.6" height="691.2" fill-opacity="0.2471"/></g></mask><clipPath id="fd2554af87"><path d="M 0.554688 0.945312 L 537 0.945312 L 537 1.558594 L 0.554688 1.558594 Z M 0.554688 0.945312 " clip-rule="nonzero"/></clipPath><clipPath id="fbac003e41"><rect x="0" width="538" y="0" height="2"/></clipPath><clipPath id="b4216059c8"><path d="M 124.554688 338.949219 L 661.125 338.949219 L 661.125 339.5625 L 124.554688 339.5625 Z M 124.554688 338.949219 " clip-rule="nonzero"/></clipPath><mask id="d7bde49539"><g filter="url(#c565634287)"><rect x="-76.8" width="921.6" fill="#000000" y="-57.6" height="691.2" fill-opacity="0.2471"/></g></mask><clipPath id="25375e028c"><path d="M 0.554688 0.949219 L 537 0.949219 L 537 1.5625 L 0.554688 1.5625 Z M 0.554688 0.949219 " clip-rule="nonzero"/></clipPath><clipPath id="2402832ca2"><rect x="0" width="538" y="0" height="2"/></clipPath><clipPath id="faee0e4808"><path d="M 124.554688 443.953125 L 661.125 443.953125 L 661.125 444.566406 L 124.554688 444.566406 Z M 124.554688 443.953125 " clip-rule="nonzero"/></clipPath><mask id="0790290fbf"><g filter="url(#c565634287)"><rect x="-76.8" width="921.6" fill="#000000" y="-57.6" height="691.2" fill-opacity="0.6"/></g></mask><clipPath id="8a86d16f11"><path d="M 0.554688 0.953125 L 537 0.953125 L 537 1.566406 L 0.554688 1.566406 Z M 0.554688 0.953125 " clip-rule="nonzero"/></clipPath><clipPath id="1d437a0754"><rect x="0" width="538" y="0" height="2"/></clipPath><clipPath id="d2cb5d69d7"><path d="M 124.554688 338.835938 L 221.523438 338.835938 L 221.523438 444.398438 L 124.554688 444.398438 Z M 124.554688 338.835938 " clip-rule="nonzero"/></clipPath><clipPath id="b4ce70a7ee"><path d="M 124.554688 444.261719 L 124.554688 346.675781 C 124.554688 344.628906 125.371094 342.660156 126.816406 341.214844 C 128.265625 339.765625 130.234375 338.949219 132.28125 338.949219 L 213.410156 338.949219 C 215.460938 338.949219 217.425781 339.765625 218.875 341.214844 C 220.324219 342.660156 221.136719 344.628906 221.136719 346.675781 L 221.136719 444.261719 L 124.554688 444.261719 " clip-rule="nonzero"/></clipPath><clipPath id="b22456aa18"><path d="M 234.414062 128.941406 L 331.382812 128.941406 L 331.382812 444.398438 L 234.414062 444.398438 Z M 234.414062 128.941406 " clip-rule="nonzero"/></clipPath><clipPath id="ce795945f5"><path d="M 234.550781 444.261719 L 234.550781 136.667969 C 234.550781 132.402344 238.011719 128.941406 242.277344 128.941406 L 323.40625 128.941406 C 325.457031 128.941406 327.421875 129.753906 328.871094 131.203125 C 330.320312 132.652344 331.132812 134.621094 331.132812 136.667969 L 331.132812 444.261719 L 234.550781 444.261719 " clip-rule="nonzero"/></clipPath><clipPath id="deb25e82cc"><path d="M 344.269531 128.941406 L 441.238281 128.941406 L 441.238281 444.398438 L 344.269531 444.398438 Z M 344.269531 128.941406 " clip-rule="nonzero"/></clipPath><clipPath id="bb0e664980"><path d="M 344.546875 444.261719 L 344.546875 136.667969 C 344.546875 134.621094 345.363281 132.652344 346.8125 131.203125 C 348.261719 129.753906 350.226562 128.941406 352.273438 128.941406 L 433.402344 128.941406 C 435.453125 128.941406 437.417969 129.753906 438.867188 131.203125 C 440.316406 132.652344 441.128906 134.621094 441.128906 136.667969 L 441.128906 444.261719 L 344.546875 444.261719 " clip-rule="nonzero"/></clipPath><clipPath id="86ef884911"><path d="M 454.128906 128.941406 L 551.710938 128.941406 L 551.710938 444.398438 L 454.128906 444.398438 Z M 454.128906 128.941406 " clip-rule="nonzero"/></clipPath><clipPath id="325f61263d"><path d="M 454.542969 444.261719 L 454.542969 136.667969 C 454.542969 134.621094 455.359375 132.652344 456.808594 131.203125 C 458.257812 129.753906 460.222656 128.941406 462.269531 128.941406 L 543.398438 128.941406 C 545.449219 128.941406 547.414062 129.753906 548.863281 131.203125 C 550.3125 132.652344 551.125 134.621094 551.125 136.667969 L 551.125 444.261719 L 454.542969 444.261719 " clip-rule="nonzero"/></clipPath></defs><rect x="-76.8" width="921.6" fill="#ffffff" y="-57.6" height="691.2" fill-opacity="1"/><rect x="-76.8" width="921.6" fill="#ffffff" y="-57.6" height="691.2" fill-opacity="1"/><rect x="-76.8" width="921.6" fill="#ffffff" y="-57.6" height="691.2" fill-opacity="1"/><g fill="#000000" fill-opacity="1"><g transform="translate(169.202814, 462.386211)"><g><path d="M 1 0 L 1 -0.984375 L 3.296875 -0.984375 L 3.296875 -7.90625 L 1.265625 -6.453125 L 1.265625 -7.546875 L 3.390625 -9.015625 L 4.453125 -9.015625 L 4.453125 -0.984375 L 6.640625 -0.984375 L 6.640625 0 Z M 1 0 "/></g></g></g><g fill="#000000" fill-opacity="1"><g transform="translate(279.199244, 462.386211)"><g><path d="M 0.65625 0 L 0.65625 -0.8125 C 0.875 -1.3125 1.140625 -1.75 1.453125 -2.125 C 1.765625 -2.507812 2.09375 -2.851562 2.4375 -3.15625 C 2.78125 -3.46875 3.125 -3.753906 3.46875 -4.015625 C 3.8125 -4.285156 4.117188 -4.550781 4.390625 -4.8125 C 4.660156 -5.082031 4.878906 -5.363281 5.046875 -5.65625 C 5.210938 -5.945312 5.296875 -6.273438 5.296875 -6.640625 C 5.296875 -7.128906 5.148438 -7.507812 4.859375 -7.78125 C 4.578125 -8.0625 4.175781 -8.203125 3.65625 -8.203125 C 3.164062 -8.203125 2.757812 -8.066406 2.4375 -7.796875 C 2.125 -7.523438 1.941406 -7.148438 1.890625 -6.671875 L 0.703125 -6.78125 C 0.796875 -7.5 1.101562 -8.070312 1.625 -8.5 C 2.15625 -8.925781 2.832031 -9.140625 3.65625 -9.140625 C 4.5625 -9.140625 5.257812 -8.925781 5.75 -8.5 C 6.238281 -8.070312 6.484375 -7.460938 6.484375 -6.671875 C 6.484375 -6.328125 6.398438 -5.976562 6.234375 -5.625 C 6.078125 -5.28125 5.84375 -4.9375 5.53125 -4.59375 C 5.21875 -4.25 4.613281 -3.710938 3.71875 -2.984375 C 3.226562 -2.585938 2.835938 -2.226562 2.546875 -1.90625 C 2.253906 -1.582031 2.046875 -1.273438 1.921875 -0.984375 L 6.625 -0.984375 L 6.625 0 Z M 0.65625 0 "/></g></g></g><g fill="#000000" fill-opacity="1"><g transform="translate(389.195675, 462.386211)"><g><path d="M 6.703125 -2.484375 C 6.703125 -1.648438 6.4375 -1.003906 5.90625 -0.546875 C 5.382812 -0.0976562 4.632812 0.125 3.65625 0.125 C 2.738281 0.125 2.007812 -0.078125 1.46875 -0.484375 C 0.925781 -0.898438 0.601562 -1.507812 0.5 -2.3125 L 1.6875 -2.421875 C 1.84375 -1.359375 2.5 -0.828125 3.65625 -0.828125 C 4.226562 -0.828125 4.679688 -0.96875 5.015625 -1.25 C 5.347656 -1.539062 5.515625 -1.96875 5.515625 -2.53125 C 5.515625 -3.019531 5.320312 -3.398438 4.9375 -3.671875 C 4.5625 -3.941406 4.019531 -4.078125 3.3125 -4.078125 L 2.65625 -4.078125 L 2.65625 -5.078125 L 3.28125 -5.078125 C 3.914062 -5.078125 4.40625 -5.210938 4.75 -5.484375 C 5.101562 -5.765625 5.28125 -6.148438 5.28125 -6.640625 C 5.28125 -7.117188 5.132812 -7.5 4.84375 -7.78125 C 4.5625 -8.0625 4.144531 -8.203125 3.59375 -8.203125 C 3.082031 -8.203125 2.671875 -8.070312 2.359375 -7.8125 C 2.046875 -7.550781 1.863281 -7.179688 1.8125 -6.703125 L 0.65625 -6.796875 C 0.738281 -7.535156 1.039062 -8.109375 1.5625 -8.515625 C 2.09375 -8.929688 2.769531 -9.140625 3.59375 -9.140625 C 4.5 -9.140625 5.203125 -8.929688 5.703125 -8.515625 C 6.203125 -8.097656 6.453125 -7.515625 6.453125 -6.765625 C 6.453125 -6.179688 6.289062 -5.707031 5.96875 -5.34375 C 5.644531 -4.988281 5.179688 -4.75 4.578125 -4.625 L 4.578125 -4.59375 C 5.242188 -4.519531 5.765625 -4.289062 6.140625 -3.90625 C 6.515625 -3.53125 6.703125 -3.054688 6.703125 -2.484375 Z M 6.703125 -2.484375 "/></g></g></g><g fill="#000000" fill-opacity="1"><g transform="translate(499.192106, 462.386211)"><g><path d="M 5.625 -2.046875 L 5.625 0 L 4.546875 0 L 4.546875 -2.046875 L 0.296875 -2.046875 L 0.296875 -2.9375 L 4.421875 -9.015625 L 5.625 -9.015625 L 5.625 -2.953125 L 6.90625 -2.953125 L 6.90625 -2.046875 Z M 4.546875 -7.703125 C 4.535156 -7.679688 4.472656 -7.570312 4.359375 -7.375 C 4.253906 -7.175781 4.175781 -7.035156 4.125 -6.953125 L 1.8125 -3.546875 L 1.46875 -3.078125 L 1.359375 -2.953125 L 4.546875 -2.953125 Z M 4.546875 -7.703125 "/></g></g></g><g fill="#000000" fill-opacity="1"><g transform="translate(609.188565, 462.386211)"><g><path d="M 6.734375 -2.9375 C 6.734375 -1.988281 6.445312 -1.238281 5.875 -0.6875 C 5.3125 -0.144531 4.53125 0.125 3.53125 0.125 C 2.695312 0.125 2.019531 -0.0546875 1.5 -0.421875 C 0.988281 -0.785156 0.664062 -1.316406 0.53125 -2.015625 L 1.6875 -2.140625 C 1.925781 -1.253906 2.550781 -0.8125 3.5625 -0.8125 C 4.175781 -0.8125 4.65625 -1 5 -1.375 C 5.351562 -1.75 5.53125 -2.257812 5.53125 -2.90625 C 5.53125 -3.476562 5.351562 -3.9375 5 -4.28125 C 4.65625 -4.632812 4.1875 -4.8125 3.59375 -4.8125 C 3.28125 -4.8125 2.988281 -4.757812 2.71875 -4.65625 C 2.445312 -4.5625 2.175781 -4.394531 1.90625 -4.15625 L 0.78125 -4.15625 L 1.09375 -9.015625 L 6.203125 -9.015625 L 6.203125 -8.03125 L 2.140625 -8.03125 L 1.96875 -5.171875 C 2.457031 -5.554688 3.078125 -5.75 3.828125 -5.75 C 4.710938 -5.75 5.414062 -5.488281 5.9375 -4.96875 C 6.46875 -4.445312 6.734375 -3.769531 6.734375 -2.9375 Z M 6.734375 -2.9375 "/></g></g></g><g clip-path="url(#1c1fe2a6ac)"><g mask="url(#04844f6669)"><g transform="matrix(1, 0, 0, 1, 124, 128)"><g clip-path="url(#f402e654bb)"><g clip-path="url(#45040535db)"><path fill="#222222" d="M 0.554688 0.941406 L 536.953125 0.941406 L 536.953125 316.398438 L 0.554688 316.398438 Z M 0.554688 0.941406 " fill-opacity="1" fill-rule="nonzero"/></g></g></g></g></g><g clip-path="url(#d71efa0b0a)"><g mask="url(#d3074cad42)"><g transform="matrix(1, 0, 0, 1, 124, 233)"><g clip-path="url(#fbac003e41)"><g clip-path="url(#fd2554af87)"><path fill="#222222" d="M 0.554688 -104.058594 L 536.953125 -104.058594 L 536.953125 211.398438 L 0.554688 211.398438 Z M 0.554688 -104.058594 " fill-opacity="1" fill-rule="nonzero"/></g></g></g></g></g><g clip-path="url(#b4216059c8)"><g mask="url(#d7bde49539)"><g transform="matrix(1, 0, 0, 1, 124, 338)"><g clip-path="url(#2402832ca2)"><g clip-path="url(#25375e028c)"><path fill="#222222" d="M 0.554688 -209.058594 L 536.953125 -209.058594 L 536.953125 106.398438 L 0.554688 106.398438 Z M 0.554688 -209.058594 " fill-opacity="1" fill-rule="nonzero"/></g></g></g></g></g><g clip-path="url(#faee0e4808)"><g mask="url(#0790290fbf)"><g transform="matrix(1, 0, 0, 1, 124, 443)"><g clip-path="url(#1d437a0754)"><g clip-path="url(#8a86d16f11)"><path fill="#222222" d="M 0.554688 -314.058594 L 536.953125 -314.058594 L 536.953125 1.398438 L 0.554688 1.398438 Z M 0.554688 -314.058594 " fill-opacity="1" fill-rule="nonzero"/></g></g></g></g></g><g fill="#000000" fill-opacity="1"><g transform="translate(107.087671, 133.33128)"><g><path d="M 6.703125 -2.484375 C 6.703125 -1.648438 6.4375 -1.003906 5.90625 -0.546875 C 5.382812 -0.0976562 4.632812 0.125 3.65625 0.125 C 2.738281 0.125 2.007812 -0.078125 1.46875 -0.484375 C 0.925781 -0.898438 0.601562 -1.507812 0.5 -2.3125 L 1.6875 -2.421875 C 1.84375 -1.359375 2.5 -0.828125 3.65625 -0.828125 C 4.226562 -0.828125 4.679688 -0.96875 5.015625 -1.25 C 5.347656 -1.539062 5.515625 -1.96875 5.515625 -2.53125 C 5.515625 -3.019531 5.320312 -3.398438 4.9375 -3.671875 C 4.5625 -3.941406 4.019531 -4.078125 3.3125 -4.078125 L 2.65625 -4.078125 L 2.65625 -5.078125 L 3.28125 -5.078125 C 3.914062 -5.078125 4.40625 -5.210938 4.75 -5.484375 C 5.101562 -5.765625 5.28125 -6.148438 5.28125 -6.640625 C 5.28125 -7.117188 5.132812 -7.5 4.84375 -7.78125 C 4.5625 -8.0625 4.144531 -8.203125 3.59375 -8.203125 C 3.082031 -8.203125 2.671875 -8.070312 2.359375 -7.8125 C 2.046875 -7.550781 1.863281 -7.179688 1.8125 -6.703125 L 0.65625 -6.796875 C 0.738281 -7.535156 1.039062 -8.109375 1.5625 -8.515625 C 2.09375 -8.929688 2.769531 -9.140625 3.59375 -9.140625 C 4.5 -9.140625 5.203125 -8.929688 5.703125 -8.515625 C 6.203125 -8.097656 6.453125 -7.515625 6.453125 -6.765625 C 6.453125 -6.179688 6.289062 -5.707031 5.96875 -5.34375 C 5.644531 -4.988281 5.179688 -4.75 4.578125 -4.625 L 4.578125 -4.59375 C 5.242188 -4.519531 5.765625 -4.289062 6.140625 -3.90625 C 6.515625 -3.53125 6.703125 -3.054688 6.703125 -2.484375 Z M 6.703125 -2.484375 "/></g></g></g><g fill="#000000" fill-opacity="1"><g transform="translate(114.366102, 133.33128)"><g/></g></g><g fill="#000000" fill-opacity="1"><g transform="translate(107.087671, 238.335312)"><g><path d="M 0.65625 0 L 0.65625 -0.8125 C 0.875 -1.3125 1.140625 -1.75 1.453125 -2.125 C 1.765625 -2.507812 2.09375 -2.851562 2.4375 -3.15625 C 2.78125 -3.46875 3.125 -3.753906 3.46875 -4.015625 C 3.8125 -4.285156 4.117188 -4.550781 4.390625 -4.8125 C 4.660156 -5.082031 4.878906 -5.363281 5.046875 -5.65625 C 5.210938 -5.945312 5.296875 -6.273438 5.296875 -6.640625 C 5.296875 -7.128906 5.148438 -7.507812 4.859375 -7.78125 C 4.578125 -8.0625 4.175781 -8.203125 3.65625 -8.203125 C 3.164062 -8.203125 2.757812 -8.066406 2.4375 -7.796875 C 2.125 -7.523438 1.941406 -7.148438 1.890625 -6.671875 L 0.703125 -6.78125 C 0.796875 -7.5 1.101562 -8.070312 1.625 -8.5 C 2.15625 -8.925781 2.832031 -9.140625 3.65625 -9.140625 C 4.5625 -9.140625 5.257812 -8.925781 5.75 -8.5 C 6.238281 -8.070312 6.484375 -7.460938 6.484375 -6.671875 C 6.484375 -6.328125 6.398438 -5.976562 6.234375 -5.625 C 6.078125 -5.28125 5.84375 -4.9375 5.53125 -4.59375 C 5.21875 -4.25 4.613281 -3.710938 3.71875 -2.984375 C 3.226562 -2.585938 2.835938 -2.226562 2.546875 -1.90625 C 2.253906 -1.582031 2.046875 -1.273438 1.921875 -0.984375 L 6.625 -0.984375 L 6.625 0 Z M 0.65625 0 "/></g></g></g><g fill="#000000" fill-opacity="1"><g transform="translate(114.366102, 238.335312)"><g/></g></g><g fill="#000000" fill-opacity="1"><g transform="translate(107.087671, 343.339349)"><g><path d="M 1 0 L 1 -0.984375 L 3.296875 -0.984375 L 3.296875 -7.90625 L 1.265625 -6.453125 L 1.265625 -7.546875 L 3.390625 -9.015625 L 4.453125 -9.015625 L 4.453125 -0.984375 L 6.640625 -0.984375 L 6.640625 0 Z M 1 0 "/></g></g></g><g fill="#000000" fill-opacity="1"><g transform="translate(114.366102, 343.339349)"><g/></g></g><g fill="#000000" fill-opacity="1"><g transform="translate(107.087671, 448.343379)"><g><path d="M 6.765625 -4.5 C 6.765625 -3 6.5 -1.851562 5.96875 -1.0625 C 5.4375 -0.269531 4.65625 0.125 3.625 0.125 C 2.59375 0.125 1.816406 -0.265625 1.296875 -1.046875 C 0.773438 -1.835938 0.515625 -2.988281 0.515625 -4.5 C 0.515625 -6.050781 0.765625 -7.210938 1.265625 -7.984375 C 1.773438 -8.753906 2.570312 -9.140625 3.65625 -9.140625 C 4.71875 -9.140625 5.5 -8.75 6 -7.96875 C 6.507812 -7.1875 6.765625 -6.03125 6.765625 -4.5 Z M 5.59375 -4.5 C 5.59375 -5.800781 5.441406 -6.742188 5.140625 -7.328125 C 4.847656 -7.910156 4.351562 -8.203125 3.65625 -8.203125 C 2.957031 -8.203125 2.453125 -7.914062 2.140625 -7.34375 C 1.828125 -6.769531 1.671875 -5.820312 1.671875 -4.5 C 1.671875 -3.226562 1.828125 -2.296875 2.140625 -1.703125 C 2.453125 -1.109375 2.953125 -0.8125 3.640625 -0.8125 C 4.316406 -0.8125 4.8125 -1.113281 5.125 -1.71875 C 5.4375 -2.320312 5.59375 -3.25 5.59375 -4.5 Z M 5.59375 -4.5 "/></g></g></g><g fill="#000000" fill-opacity="1"><g transform="translate(114.366102, 448.343379)"><g/></g></g><g clip-path="url(#d2cb5d69d7)"><g clip-path="url(#b4ce70a7ee)"><path fill="#64a0a2" d="M 124.554688 128.941406 L 551.097656 128.941406 L 551.097656 444.398438 L 124.554688 444.398438 Z M 124.554688 128.941406 " fill-opacity="1" fill-rule="nonzero"/></g></g><g clip-path="url(#b22456aa18)"><g clip-path="url(#ce795945f5)"><path fill="#64a0a2" d="M 124.554688 128.941406 L 551.097656 128.941406 L 551.097656 444.398438 L 124.554688 444.398438 Z M 124.554688 128.941406 " fill-opacity="1" fill-rule="nonzero"/></g></g><g clip-path="url(#deb25e82cc)"><g clip-path="url(#bb0e664980)"><path fill="#64a0a2" d="M 124.554688 128.941406 L 551.097656 128.941406 L 551.097656 444.398438 L 124.554688 444.398438 Z M 124.554688 128.941406 " fill-opacity="1" fill-rule="nonzero"/></g></g><g clip-path="url(#86ef884911)"><g clip-path="url(#325f61263d)"><path fill="#64a0a2" d="M 124.554688 128.941406 L 551.097656 128.941406 L 551.097656 444.398438 L 124.554688 444.398438 Z M 124.554688 128.941406 " fill-opacity="1" fill-rule="nonzero"/></g></g><g fill="#000000" fill-opacity="1"><g transform="translate(163.57381, 75.609799)"><g><path d="M 12.578125 0 L 10.453125 0 L 10.453125 -5.21875 L 3.78125 -5.21875 L 3.78125 0 L 1.65625 0 L 1.65625 -12.59375 L 3.78125 -12.59375 L 3.78125 -7.125 L 10.453125 -7.125 L 10.453125 -12.59375 L 12.578125 -12.59375 Z M 12.578125 0 "/></g></g></g><g fill="#000000" fill-opacity="1"><g transform="translate(177.811771, 75.609799)"><g><path d="M 5.640625 -9.640625 C 7.109375 -9.640625 8.304688 -9.191406 9.234375 -8.296875 C 10.160156 -7.410156 10.625 -6.238281 10.625 -4.78125 C 10.625 -3.34375 10.160156 -2.171875 9.234375 -1.265625 C 8.304688 -0.367188 7.109375 0.078125 5.640625 0.078125 C 4.148438 0.078125 2.941406 -0.367188 2.015625 -1.265625 C 1.085938 -2.171875 0.625 -3.34375 0.625 -4.78125 C 0.625 -6.238281 1.085938 -7.410156 2.015625 -8.296875 C 2.941406 -9.191406 4.148438 -9.640625 5.640625 -9.640625 Z M 5.640625 -7.859375 C 4.773438 -7.859375 4.066406 -7.570312 3.515625 -7 C 2.972656 -6.425781 2.703125 -5.679688 2.703125 -4.765625 C 2.703125 -3.847656 2.972656 -3.097656 3.515625 -2.515625 C 4.066406 -1.941406 4.773438 -1.65625 5.640625 -1.65625 C 6.503906 -1.65625 7.203125 -1.941406 7.734375 -2.515625 C 8.273438 -3.097656 8.546875 -3.847656 8.546875 -4.765625 C 8.546875 -5.679688 8.269531 -6.425781 7.71875 -7 C 7.175781 -7.570312 6.484375 -7.859375 5.640625 -7.859375 Z M 5.640625 -7.859375 "/></g></g></g><g fill="#000000" fill-opacity="1"><g transform="translate(189.061736, 75.609799)"><g><path d="M 12.671875 0 L 10.53125 0 L 8.09375 -7.09375 L 5.671875 0 L 3.546875 0 L 0.015625 -9.578125 L 2.140625 -9.578125 L 4.625 -2.046875 L 7.03125 -9.578125 L 9.1875 -9.578125 L 11.609375 -2.046875 L 14.0625 -9.578125 L 16.15625 -9.578125 Z M 12.671875 0 "/></g></g></g><g fill="#000000" fill-opacity="1"><g transform="translate(205.135684, 75.609799)"><g/></g></g><g fill="#000000" fill-opacity="1"><g transform="translate(209.779673, 75.609799)"><g><path d="M 5.46875 -9.640625 C 7.113281 -9.640625 8.304688 -9.144531 9.046875 -8.15625 C 9.785156 -7.164062 10.085938 -5.78125 9.953125 -4 L 2.71875 -4 C 2.882812 -3.25 3.226562 -2.660156 3.75 -2.234375 C 4.28125 -1.816406 4.925781 -1.609375 5.6875 -1.609375 C 6.769531 -1.609375 7.671875 -1.976562 8.390625 -2.71875 L 9.484375 -1.546875 C 8.503906 -0.460938 7.1875 0.078125 5.53125 0.078125 C 4.050781 0.078125 2.863281 -0.367188 1.96875 -1.265625 C 1.070312 -2.160156 0.625 -3.328125 0.625 -4.765625 C 0.625 -6.210938 1.070312 -7.382812 1.96875 -8.28125 C 2.875 -9.175781 4.039062 -9.628906 5.46875 -9.640625 Z M 2.6875 -5.515625 L 8.15625 -5.515625 C 8.113281 -6.273438 7.851562 -6.875 7.375 -7.3125 C 6.894531 -7.757812 6.265625 -7.984375 5.484375 -7.984375 C 4.734375 -7.984375 4.109375 -7.757812 3.609375 -7.3125 C 3.109375 -6.875 2.800781 -6.273438 2.6875 -5.515625 Z M 2.6875 -5.515625 "/></g></g></g><g fill="#000000" fill-opacity="1"><g transform="translate(220.363638, 75.609799)"><g><path d="M 7.265625 0 L 7.265625 -1.171875 C 6.585938 -0.328125 5.535156 0.09375 4.109375 0.09375 C 3.085938 0.09375 2.269531 -0.179688 1.65625 -0.734375 C 1.039062 -1.296875 0.734375 -2.007812 0.734375 -2.875 C 0.734375 -3.75 1.050781 -4.441406 1.6875 -4.953125 C 2.320312 -5.472656 3.210938 -5.742188 4.359375 -5.765625 L 7.25 -5.765625 L 7.25 -6.046875 C 7.25 -6.660156 7.050781 -7.132812 6.65625 -7.46875 C 6.269531 -7.800781 5.707031 -7.96875 4.96875 -7.96875 C 4.039062 -7.96875 3.097656 -7.644531 2.140625 -7 L 1.296875 -8.4375 C 2.023438 -8.875 2.679688 -9.179688 3.265625 -9.359375 C 3.847656 -9.546875 4.566406 -9.640625 5.421875 -9.640625 C 6.640625 -9.640625 7.582031 -9.34375 8.25 -8.75 C 8.925781 -8.15625 9.269531 -7.332031 9.28125 -6.28125 L 9.3125 0 Z M 4.53125 -1.546875 C 5.269531 -1.546875 5.890625 -1.71875 6.390625 -2.0625 C 6.898438 -2.40625 7.1875 -2.835938 7.25 -3.359375 L 7.25 -4.25 L 4.65625 -4.25 C 3.976562 -4.25 3.476562 -4.148438 3.15625 -3.953125 C 2.84375 -3.753906 2.6875 -3.425781 2.6875 -2.96875 C 2.6875 -2.539062 2.847656 -2.195312 3.171875 -1.9375 C 3.503906 -1.675781 3.957031 -1.546875 4.53125 -1.546875 Z M 4.53125 -1.546875 "/></g></g></g><g fill="#000000" fill-opacity="1"><g transform="translate(230.911611, 75.609799)"><g><path d="M 4.390625 -9.671875 C 5.710938 -9.671875 6.828125 -9.34375 7.734375 -8.6875 L 6.984375 -7.15625 C 6.066406 -7.726562 5.148438 -8.015625 4.234375 -8.015625 C 3.296875 -8.015625 2.828125 -7.695312 2.828125 -7.0625 C 2.828125 -6.75 3 -6.488281 3.34375 -6.28125 C 3.695312 -6.070312 4.117188 -5.898438 4.609375 -5.765625 C 5.109375 -5.628906 5.609375 -5.46875 6.109375 -5.28125 C 6.609375 -5.09375 7.03125 -4.789062 7.375 -4.375 C 7.726562 -3.957031 7.90625 -3.421875 7.90625 -2.765625 C 7.90625 -1.847656 7.550781 -1.144531 6.84375 -0.65625 C 6.144531 -0.164062 5.273438 0.078125 4.234375 0.078125 C 3.515625 0.078125 2.804688 -0.0351562 2.109375 -0.265625 C 1.421875 -0.503906 0.84375 -0.835938 0.375 -1.265625 L 1.109375 -2.734375 C 1.523438 -2.378906 2.03125 -2.09375 2.625 -1.875 C 3.21875 -1.65625 3.78125 -1.546875 4.3125 -1.546875 C 4.78125 -1.546875 5.160156 -1.628906 5.453125 -1.796875 C 5.742188 -1.960938 5.890625 -2.222656 5.890625 -2.578125 C 5.890625 -2.929688 5.710938 -3.21875 5.359375 -3.4375 C 5.015625 -3.65625 4.59375 -3.828125 4.09375 -3.953125 C 3.601562 -4.085938 3.113281 -4.242188 2.625 -4.421875 C 2.132812 -4.609375 1.71875 -4.90625 1.375 -5.3125 C 1.03125 -5.726562 0.859375 -6.253906 0.859375 -6.890625 C 0.859375 -7.804688 1.195312 -8.5 1.875 -8.96875 C 2.550781 -9.4375 3.390625 -9.671875 4.390625 -9.671875 Z M 4.390625 -9.671875 "/></g></g></g><g fill="#000000" fill-opacity="1"><g transform="translate(239.371587, 75.609799)"><g><path d="M 9.640625 -9.578125 L 5.296875 1.3125 C 4.703125 2.820312 3.660156 3.578125 2.171875 3.578125 C 1.347656 3.578125 0.613281 3.304688 -0.03125 2.765625 L 0.84375 1.171875 C 1.28125 1.484375 1.695312 1.640625 2.09375 1.640625 C 2.738281 1.640625 3.222656 1.285156 3.546875 0.578125 L 3.875 -0.140625 L -0.09375 -9.578125 L 2.046875 -9.578125 L 4.90625 -2.328125 L 7.578125 -9.578125 Z M 9.640625 -9.578125 "/></g></g></g><g fill="#000000" fill-opacity="1"><g transform="translate(248.929555, 75.609799)"><g/></g></g><g fill="#000000" fill-opacity="1"><g transform="translate(253.573544, 75.609799)"><g><path d="M 12.671875 0 L 10.53125 0 L 8.09375 -7.09375 L 5.671875 0 L 3.546875 0 L 0.015625 -9.578125 L 2.140625 -9.578125 L 4.625 -2.046875 L 7.03125 -9.578125 L 9.1875 -9.578125 L 11.609375 -2.046875 L 14.0625 -9.578125 L 16.15625 -9.578125 Z M 12.671875 0 "/></g></g></g><g fill="#000000" fill-opacity="1"><g transform="translate(269.647492, 75.609799)"><g><path d="M 7.265625 0 L 7.265625 -1.171875 C 6.585938 -0.328125 5.535156 0.09375 4.109375 0.09375 C 3.085938 0.09375 2.269531 -0.179688 1.65625 -0.734375 C 1.039062 -1.296875 0.734375 -2.007812 0.734375 -2.875 C 0.734375 -3.75 1.050781 -4.441406 1.6875 -4.953125 C 2.320312 -5.472656 3.210938 -5.742188 4.359375 -5.765625 L 7.25 -5.765625 L 7.25 -6.046875 C 7.25 -6.660156 7.050781 -7.132812 6.65625 -7.46875 C 6.269531 -7.800781 5.707031 -7.96875 4.96875 -7.96875 C 4.039062 -7.96875 3.097656 -7.644531 2.140625 -7 L 1.296875 -8.4375 C 2.023438 -8.875 2.679688 -9.179688 3.265625 -9.359375 C 3.847656 -9.546875 4.566406 -9.640625 5.421875 -9.640625 C 6.640625 -9.640625 7.582031 -9.34375 8.25 -8.75 C 8.925781 -8.15625 9.269531 -7.332031 9.28125 -6.28125 L 9.3125 0 Z M 4.53125 -1.546875 C 5.269531 -1.546875 5.890625 -1.71875 6.390625 -2.0625 C 6.898438 -2.40625 7.1875 -2.835938 7.25 -3.359375 L 7.25 -4.25 L 4.65625 -4.25 C 3.976562 -4.25 3.476562 -4.148438 3.15625 -3.953125 C 2.84375 -3.753906 2.6875 -3.425781 2.6875 -2.96875 C 2.6875 -2.539062 2.847656 -2.195312 3.171875 -1.9375 C 3.503906 -1.675781 3.957031 -1.546875 4.53125 -1.546875 Z M 4.53125 -1.546875 "/></g></g></g><g fill="#000000" fill-opacity="1"><g transform="translate(280.195465, 75.609799)"><g><path d="M 4.390625 -9.671875 C 5.710938 -9.671875 6.828125 -9.34375 7.734375 -8.6875 L 6.984375 -7.15625 C 6.066406 -7.726562 5.148438 -8.015625 4.234375 -8.015625 C 3.296875 -8.015625 2.828125 -7.695312 2.828125 -7.0625 C 2.828125 -6.75 3 -6.488281 3.34375 -6.28125 C 3.695312 -6.070312 4.117188 -5.898438 4.609375 -5.765625 C 5.109375 -5.628906 5.609375 -5.46875 6.109375 -5.28125 C 6.609375 -5.09375 7.03125 -4.789062 7.375 -4.375 C 7.726562 -3.957031 7.90625 -3.421875 7.90625 -2.765625 C 7.90625 -1.847656 7.550781 -1.144531 6.84375 -0.65625 C 6.144531 -0.164062 5.273438 0.078125 4.234375 0.078125 C 3.515625 0.078125 2.804688 -0.0351562 2.109375 -0.265625 C 1.421875 -0.503906 0.84375 -0.835938 0.375 -1.265625 L 1.109375 -2.734375 C 1.523438 -2.378906 2.03125 -2.09375 2.625 -1.875 C 3.21875 -1.65625 3.78125 -1.546875 4.3125 -1.546875 C 4.78125 -1.546875 5.160156 -1.628906 5.453125 -1.796875 C 5.742188 -1.960938 5.890625 -2.222656 5.890625 -2.578125 C 5.890625 -2.929688 5.710938 -3.21875 5.359375 -3.4375 C 5.015625 -3.65625 4.59375 -3.828125 4.09375 -3.953125 C 3.601562 -4.085938 3.113281 -4.242188 2.625 -4.421875 C 2.132812 -4.609375 1.71875 -4.90625 1.375 -5.3125 C 1.03125 -5.726562 0.859375 -6.253906 0.859375 -6.890625 C 0.859375 -7.804688 1.195312 -8.5 1.875 -8.96875 C 2.550781 -9.4375 3.390625 -9.671875 4.390625 -9.671875 Z M 4.390625 -9.671875 "/></g></g></g><g fill="#000000" fill-opacity="1"><g transform="translate(288.655441, 75.609799)"><g/></g></g><g fill="#000000" fill-opacity="1"><g transform="translate(293.29943, 75.609799)"><g><path d="M 1.6875 -13.21875 C 1.914062 -13.457031 2.203125 -13.578125 2.546875 -13.578125 C 2.898438 -13.578125 3.191406 -13.457031 3.421875 -13.21875 C 3.648438 -12.988281 3.765625 -12.6875 3.765625 -12.3125 C 3.765625 -11.945312 3.648438 -11.644531 3.421875 -11.40625 C 3.191406 -11.175781 2.898438 -11.0625 2.546875 -11.0625 C 2.203125 -11.0625 1.914062 -11.175781 1.6875 -11.40625 C 1.457031 -11.644531 1.34375 -11.945312 1.34375 -12.3125 C 1.34375 -12.6875 1.457031 -12.988281 1.6875 -13.21875 Z M 3.578125 0 L 1.53125 0 L 1.53125 -9.578125 L 3.578125 -9.578125 Z M 3.578125 0 "/></g></g></g><g fill="#000000" fill-opacity="1"><g transform="translate(298.411414, 75.609799)"><g><path d="M 6.421875 -2.203125 L 6.953125 -0.609375 C 6.160156 -0.140625 5.375 0.09375 4.59375 0.09375 C 3.8125 0.09375 3.164062 -0.140625 2.65625 -0.609375 C 2.15625 -1.078125 1.90625 -1.773438 1.90625 -2.703125 L 1.90625 -7.671875 L 0.5625 -7.671875 L 0.5625 -9.21875 L 1.90625 -9.21875 L 1.90625 -11.84375 L 3.953125 -11.84375 L 3.953125 -9.21875 L 6.78125 -9.21875 L 6.78125 -7.671875 L 3.953125 -7.671875 L 3.953125 -3.078125 C 3.953125 -2.597656 4.035156 -2.257812 4.203125 -2.0625 C 4.378906 -1.875 4.640625 -1.78125 4.984375 -1.78125 C 5.367188 -1.78125 5.847656 -1.921875 6.421875 -2.203125 Z M 6.421875 -2.203125 "/></g></g></g><g fill="#000000" fill-opacity="1"><g transform="translate(305.737395, 75.609799)"><g/></g></g><g fill="#000000" fill-opacity="1"><g transform="translate(310.381384, 75.609799)"><g><path d="M 5.28125 -11.640625 C 4.90625 -11.640625 4.59375 -11.53125 4.34375 -11.3125 C 4.101562 -11.101562 3.984375 -10.78125 3.984375 -10.34375 L 3.984375 -9.21875 L 6.484375 -9.21875 L 6.484375 -7.671875 L 3.984375 -7.671875 L 3.984375 0 L 1.921875 0 L 1.921875 -7.671875 L 0.671875 -7.671875 L 0.671875 -9.21875 L 1.921875 -9.21875 L 1.921875 -10.15625 C 1.921875 -11.207031 2.242188 -12.019531 2.890625 -12.59375 C 3.546875 -13.164062 4.320312 -13.453125 5.21875 -13.453125 C 6.0625 -13.453125 6.78125 -13.226562 7.375 -12.78125 L 6.59375 -11.203125 C 6.175781 -11.492188 5.738281 -11.640625 5.28125 -11.640625 Z M 5.28125 -11.640625 "/></g></g></g><g fill="#000000" fill-opacity="1"><g transform="translate(316.555369, 75.609799)"><g><path d="M 5.640625 -9.640625 C 7.109375 -9.640625 8.304688 -9.191406 9.234375 -8.296875 C 10.160156 -7.410156 10.625 -6.238281 10.625 -4.78125 C 10.625 -3.34375 10.160156 -2.171875 9.234375 -1.265625 C 8.304688 -0.367188 7.109375 0.078125 5.640625 0.078125 C 4.148438 0.078125 2.941406 -0.367188 2.015625 -1.265625 C 1.085938 -2.171875 0.625 -3.34375 0.625 -4.78125 C 0.625 -6.238281 1.085938 -7.410156 2.015625 -8.296875 C 2.941406 -9.191406 4.148438 -9.640625 5.640625 -9.640625 Z M 5.640625 -7.859375 C 4.773438 -7.859375 4.066406 -7.570312 3.515625 -7 C 2.972656 -6.425781 2.703125 -5.679688 2.703125 -4.765625 C 2.703125 -3.847656 2.972656 -3.097656 3.515625 -2.515625 C 4.066406 -1.941406 4.773438 -1.65625 5.640625 -1.65625 C 6.503906 -1.65625 7.203125 -1.941406 7.734375 -2.515625 C 8.273438 -3.097656 8.546875 -3.847656 8.546875 -4.765625 C 8.546875 -5.679688 8.269531 -6.425781 7.71875 -7 C 7.175781 -7.570312 6.484375 -7.859375 5.640625 -7.859375 Z M 5.640625 -7.859375 "/></g></g></g><g fill="#000000" fill-opacity="1"><g transform="translate(327.805334, 75.609799)"><g><path d="M 3.59375 -9.578125 L 3.59375 -7.671875 C 4.257812 -8.984375 5.363281 -9.640625 6.90625 -9.640625 L 6.90625 -7.671875 C 5.957031 -7.710938 5.1875 -7.488281 4.59375 -7 C 4.007812 -6.507812 3.675781 -5.84375 3.59375 -5 L 3.59375 0 L 1.53125 0 L 1.53125 -9.578125 Z M 3.59375 -9.578125 "/></g></g></g><g fill="#000000" fill-opacity="1"><g transform="translate(334.897317, 75.609799)"><g/></g></g><g fill="#000000" fill-opacity="1"><g transform="translate(339.541307, 75.609799)"><g><path d="M 9.640625 -9.578125 L 5.296875 1.3125 C 4.703125 2.820312 3.660156 3.578125 2.171875 3.578125 C 1.347656 3.578125 0.613281 3.304688 -0.03125 2.765625 L 0.84375 1.171875 C 1.28125 1.484375 1.695312 1.640625 2.09375 1.640625 C 2.738281 1.640625 3.222656 1.285156 3.546875 0.578125 L 3.875 -0.140625 L -0.09375 -9.578125 L 2.046875 -9.578125 L 4.90625 -2.328125 L 7.578125 -9.578125 Z M 9.640625 -9.578125 "/></g></g></g><g fill="#000000" fill-opacity="1"><g transform="translate(349.099274, 75.609799)"><g><path d="M 5.640625 -9.640625 C 7.109375 -9.640625 8.304688 -9.191406 9.234375 -8.296875 C 10.160156 -7.410156 10.625 -6.238281 10.625 -4.78125 C 10.625 -3.34375 10.160156 -2.171875 9.234375 -1.265625 C 8.304688 -0.367188 7.109375 0.078125 5.640625 0.078125 C 4.148438 0.078125 2.941406 -0.367188 2.015625 -1.265625 C 1.085938 -2.171875 0.625 -3.34375 0.625 -4.78125 C 0.625 -6.238281 1.085938 -7.410156 2.015625 -8.296875 C 2.941406 -9.191406 4.148438 -9.640625 5.640625 -9.640625 Z M 5.640625 -7.859375 C 4.773438 -7.859375 4.066406 -7.570312 3.515625 -7 C 2.972656 -6.425781 2.703125 -5.679688 2.703125 -4.765625 C 2.703125 -3.847656 2.972656 -3.097656 3.515625 -2.515625 C 4.066406 -1.941406 4.773438 -1.65625 5.640625 -1.65625 C 6.503906 -1.65625 7.203125 -1.941406 7.734375 -2.515625 C 8.273438 -3.097656 8.546875 -3.847656 8.546875 -4.765625 C 8.546875 -5.679688 8.269531 -6.425781 7.71875 -7 C 7.175781 -7.570312 6.484375 -7.859375 5.640625 -7.859375 Z M 5.640625 -7.859375 "/></g></g></g><g fill="#000000" fill-opacity="1"><g transform="translate(360.34924, 75.609799)"><g><path d="M 10.21875 -9.578125 L 10.21875 0 L 8.15625 0 L 8.15625 -1.875 C 7.53125 -0.601562 6.390625 0.046875 4.734375 0.078125 C 3.640625 0.078125 2.78125 -0.25 2.15625 -0.90625 C 1.53125 -1.570312 1.21875 -2.476562 1.21875 -3.625 L 1.21875 -9.578125 L 3.296875 -9.578125 L 3.296875 -4.1875 C 3.296875 -3.46875 3.492188 -2.898438 3.890625 -2.484375 C 4.285156 -2.078125 4.832031 -1.875 5.53125 -1.875 C 6.332031 -1.882812 6.96875 -2.164062 7.4375 -2.71875 C 7.914062 -3.28125 8.15625 -3.992188 8.15625 -4.859375 L 8.15625 -9.578125 Z M 10.21875 -9.578125 "/></g></g></g><g fill="#000000" fill-opacity="1"><g transform="translate(372.103191, 75.609799)"><g/></g></g><g fill="#000000" fill-opacity="1"><g transform="translate(376.74718, 75.609799)"><g><path d="M 6.421875 -2.203125 L 6.953125 -0.609375 C 6.160156 -0.140625 5.375 0.09375 4.59375 0.09375 C 3.8125 0.09375 3.164062 -0.140625 2.65625 -0.609375 C 2.15625 -1.078125 1.90625 -1.773438 1.90625 -2.703125 L 1.90625 -7.671875 L 0.5625 -7.671875 L 0.5625 -9.21875 L 1.90625 -9.21875 L 1.90625 -11.84375 L 3.953125 -11.84375 L 3.953125 -9.21875 L 6.78125 -9.21875 L 6.78125 -7.671875 L 3.953125 -7.671875 L 3.953125 -3.078125 C 3.953125 -2.597656 4.035156 -2.257812 4.203125 -2.0625 C 4.378906 -1.875 4.640625 -1.78125 4.984375 -1.78125 C 5.367188 -1.78125 5.847656 -1.921875 6.421875 -2.203125 Z M 6.421875 -2.203125 "/></g></g></g><g fill="#000000" fill-opacity="1"><g transform="translate(384.073161, 75.609799)"><g><path d="M 5.640625 -9.640625 C 7.109375 -9.640625 8.304688 -9.191406 9.234375 -8.296875 C 10.160156 -7.410156 10.625 -6.238281 10.625 -4.78125 C 10.625 -3.34375 10.160156 -2.171875 9.234375 -1.265625 C 8.304688 -0.367188 7.109375 0.078125 5.640625 0.078125 C 4.148438 0.078125 2.941406 -0.367188 2.015625 -1.265625 C 1.085938 -2.171875 0.625 -3.34375 0.625 -4.78125 C 0.625 -6.238281 1.085938 -7.410156 2.015625 -8.296875 C 2.941406 -9.191406 4.148438 -9.640625 5.640625 -9.640625 Z M 5.640625 -7.859375 C 4.773438 -7.859375 4.066406 -7.570312 3.515625 -7 C 2.972656 -6.425781 2.703125 -5.679688 2.703125 -4.765625 C 2.703125 -3.847656 2.972656 -3.097656 3.515625 -2.515625 C 4.066406 -1.941406 4.773438 -1.65625 5.640625 -1.65625 C 6.503906 -1.65625 7.203125 -1.941406 7.734375 -2.515625 C 8.273438 -3.097656 8.546875 -3.847656 8.546875 -4.765625 C 8.546875 -5.679688 8.269531 -6.425781 7.71875 -7 C 7.175781 -7.570312 6.484375 -7.859375 5.640625 -7.859375 Z M 5.640625 -7.859375 "/></g></g></g><g fill="#000000" fill-opacity="1"><g transform="translate(395.323115, 75.609799)"><g/></g></g><g fill="#000000" fill-opacity="1"><g transform="translate(399.967104, 75.609799)"><g><path d="M 7.03125 -9.640625 C 8.394531 -9.640625 9.5 -9.1875 10.34375 -8.28125 C 11.1875 -7.382812 11.609375 -6.207031 11.609375 -4.75 C 11.609375 -3.3125 11.191406 -2.144531 10.359375 -1.25 C 9.535156 -0.363281 8.441406 0.078125 7.078125 0.078125 C 5.535156 0.078125 4.40625 -0.5 3.6875 -1.65625 L 3.6875 0 L 1.625 0 L 1.625 -13.359375 L 3.6875 -13.359375 L 3.6875 -7.921875 C 4.40625 -9.066406 5.519531 -9.640625 7.03125 -9.640625 Z M 4.5 -2.5625 C 5.050781 -1.976562 5.753906 -1.6875 6.609375 -1.6875 C 7.460938 -1.6875 8.160156 -1.976562 8.703125 -2.5625 C 9.242188 -3.144531 9.515625 -3.898438 9.515625 -4.828125 C 9.515625 -5.722656 9.242188 -6.460938 8.703125 -7.046875 C 8.160156 -7.628906 7.460938 -7.921875 6.609375 -7.921875 C 5.753906 -7.921875 5.050781 -7.628906 4.5 -7.046875 C 3.957031 -6.460938 3.6875 -5.722656 3.6875 -4.828125 C 3.6875 -3.898438 3.957031 -3.144531 4.5 -2.5625 Z M 4.5 -2.5625 "/></g></g></g><g fill="#000000" fill-opacity="1"><g transform="translate(412.207064, 75.609799)"><g><path d="M 5.640625 -9.640625 C 7.109375 -9.640625 8.304688 -9.191406 9.234375 -8.296875 C 10.160156 -7.410156 10.625 -6.238281 10.625 -4.78125 C 10.625 -3.34375 10.160156 -2.171875 9.234375 -1.265625 C 8.304688 -0.367188 7.109375 0.078125 5.640625 0.078125 C 4.148438 0.078125 2.941406 -0.367188 2.015625 -1.265625 C 1.085938 -2.171875 0.625 -3.34375 0.625 -4.78125 C 0.625 -6.238281 1.085938 -7.410156 2.015625 -8.296875 C 2.941406 -9.191406 4.148438 -9.640625 5.640625 -9.640625 Z M 5.640625 -7.859375 C 4.773438 -7.859375 4.066406 -7.570312 3.515625 -7 C 2.972656 -6.425781 2.703125 -5.679688 2.703125 -4.765625 C 2.703125 -3.847656 2.972656 -3.097656 3.515625 -2.515625 C 4.066406 -1.941406 4.773438 -1.65625 5.640625 -1.65625 C 6.503906 -1.65625 7.203125 -1.941406 7.734375 -2.515625 C 8.273438 -3.097656 8.546875 -3.847656 8.546875 -4.765625 C 8.546875 -5.679688 8.269531 -6.425781 7.71875 -7 C 7.175781 -7.570312 6.484375 -7.859375 5.640625 -7.859375 Z M 5.640625 -7.859375 "/></g></g></g><g fill="#000000" fill-opacity="1"><g transform="translate(423.45704, 75.609799)"><g><path d="M 5.640625 -9.640625 C 7.109375 -9.640625 8.304688 -9.191406 9.234375 -8.296875 C 10.160156 -7.410156 10.625 -6.238281 10.625 -4.78125 C 10.625 -3.34375 10.160156 -2.171875 9.234375 -1.265625 C 8.304688 -0.367188 7.109375 0.078125 5.640625 0.078125 C 4.148438 0.078125 2.941406 -0.367188 2.015625 -1.265625 C 1.085938 -2.171875 0.625 -3.34375 0.625 -4.78125 C 0.625 -6.238281 1.085938 -7.410156 2.015625 -8.296875 C 2.941406 -9.191406 4.148438 -9.640625 5.640625 -9.640625 Z M 5.640625 -7.859375 C 4.773438 -7.859375 4.066406 -7.570312 3.515625 -7 C 2.972656 -6.425781 2.703125 -5.679688 2.703125 -4.765625 C 2.703125 -3.847656 2.972656 -3.097656 3.515625 -2.515625 C 4.066406 -1.941406 4.773438 -1.65625 5.640625 -1.65625 C 6.503906 -1.65625 7.203125 -1.941406 7.734375 -2.515625 C 8.273438 -3.097656 8.546875 -3.847656 8.546875 -4.765625 C 8.546875 -5.679688 8.269531 -6.425781 7.71875 -7 C 7.175781 -7.570312 6.484375 -7.859375 5.640625 -7.859375 Z M 5.640625 -7.859375 "/></g></g></g><g fill="#000000" fill-opacity="1"><g transform="translate(434.706994, 75.609799)"><g><path d="M 5.3125 -4.390625 L 3.6875 -2.6875 L 3.6875 0 L 1.625 0 L 1.625 -13.359375 L 3.6875 -13.359375 L 3.6875 -5.296875 L 7.921875 -9.578125 L 10.296875 -9.578125 L 6.75 -5.875 L 10.5625 0 L 8.125 0 Z M 5.3125 -4.390625 "/></g></g></g><g fill="#000000" fill-opacity="1"><g transform="translate(445.41697, 75.609799)"><g/></g></g><g fill="#000000" fill-opacity="1"><g transform="translate(450.060959, 75.609799)"><g><path d="M 7.265625 0 L 7.265625 -1.171875 C 6.585938 -0.328125 5.535156 0.09375 4.109375 0.09375 C 3.085938 0.09375 2.269531 -0.179688 1.65625 -0.734375 C 1.039062 -1.296875 0.734375 -2.007812 0.734375 -2.875 C 0.734375 -3.75 1.050781 -4.441406 1.6875 -4.953125 C 2.320312 -5.472656 3.210938 -5.742188 4.359375 -5.765625 L 7.25 -5.765625 L 7.25 -6.046875 C 7.25 -6.660156 7.050781 -7.132812 6.65625 -7.46875 C 6.269531 -7.800781 5.707031 -7.96875 4.96875 -7.96875 C 4.039062 -7.96875 3.097656 -7.644531 2.140625 -7 L 1.296875 -8.4375 C 2.023438 -8.875 2.679688 -9.179688 3.265625 -9.359375 C 3.847656 -9.546875 4.566406 -9.640625 5.421875 -9.640625 C 6.640625 -9.640625 7.582031 -9.34375 8.25 -8.75 C 8.925781 -8.15625 9.269531 -7.332031 9.28125 -6.28125 L 9.3125 0 Z M 4.53125 -1.546875 C 5.269531 -1.546875 5.890625 -1.71875 6.390625 -2.0625 C 6.898438 -2.40625 7.1875 -2.835938 7.25 -3.359375 L 7.25 -4.25 L 4.65625 -4.25 C 3.976562 -4.25 3.476562 -4.148438 3.15625 -3.953125 C 2.84375 -3.753906 2.6875 -3.425781 2.6875 -2.96875 C 2.6875 -2.539062 2.847656 -2.195312 3.171875 -1.9375 C 3.503906 -1.675781 3.957031 -1.546875 4.53125 -1.546875 Z M 4.53125 -1.546875 "/></g></g></g><g fill="#000000" fill-opacity="1"><g transform="translate(460.608932, 75.609799)"><g><path d="M 7.125 -9.640625 C 8.238281 -9.640625 9.109375 -9.3125 9.734375 -8.65625 C 10.367188 -8.007812 10.6875 -7.109375 10.6875 -5.953125 L 10.6875 0 L 8.625 0 L 8.625 -5.375 C 8.625 -6.101562 8.414062 -6.671875 8 -7.078125 C 7.59375 -7.492188 7.03125 -7.703125 6.3125 -7.703125 C 5.550781 -7.691406 4.925781 -7.445312 4.4375 -6.96875 C 3.945312 -6.488281 3.664062 -5.863281 3.59375 -5.09375 L 3.59375 0 L 1.53125 0 L 1.53125 -9.578125 L 3.59375 -9.578125 L 3.59375 -7.734375 C 4.25 -9.003906 5.425781 -9.640625 7.125 -9.640625 Z M 7.125 -9.640625 "/></g></g></g><g fill="#000000" fill-opacity="1"><g transform="translate(472.5429, 75.609799)"><g/></g></g><g fill="#000000" fill-opacity="1"><g transform="translate(477.186889, 75.609799)"><g><path d="M 7.265625 0 L 7.265625 -1.171875 C 6.585938 -0.328125 5.535156 0.09375 4.109375 0.09375 C 3.085938 0.09375 2.269531 -0.179688 1.65625 -0.734375 C 1.039062 -1.296875 0.734375 -2.007812 0.734375 -2.875 C 0.734375 -3.75 1.050781 -4.441406 1.6875 -4.953125 C 2.320312 -5.472656 3.210938 -5.742188 4.359375 -5.765625 L 7.25 -5.765625 L 7.25 -6.046875 C 7.25 -6.660156 7.050781 -7.132812 6.65625 -7.46875 C 6.269531 -7.800781 5.707031 -7.96875 4.96875 -7.96875 C 4.039062 -7.96875 3.097656 -7.644531 2.140625 -7 L 1.296875 -8.4375 C 2.023438 -8.875 2.679688 -9.179688 3.265625 -9.359375 C 3.847656 -9.546875 4.566406 -9.640625 5.421875 -9.640625 C 6.640625 -9.640625 7.582031 -9.34375 8.25 -8.75 C 8.925781 -8.15625 9.269531 -7.332031 9.28125 -6.28125 L 9.3125 0 Z M 4.53125 -1.546875 C 5.269531 -1.546875 5.890625 -1.71875 6.390625 -2.0625 C 6.898438 -2.40625 7.1875 -2.835938 7.25 -3.359375 L 7.25 -4.25 L 4.65625 -4.25 C 3.976562 -4.25 3.476562 -4.148438 3.15625 -3.953125 C 2.84375 -3.753906 2.6875 -3.425781 2.6875 -2.96875 C 2.6875 -2.539062 2.847656 -2.195312 3.171875 -1.9375 C 3.503906 -1.675781 3.957031 -1.546875 4.53125 -1.546875 Z M 4.53125 -1.546875 "/></g></g></g><g fill="#000000" fill-opacity="1"><g transform="translate(487.734862, 75.609799)"><g><path d="M 7.03125 -9.640625 C 8.394531 -9.640625 9.5 -9.1875 10.34375 -8.28125 C 11.1875 -7.382812 11.609375 -6.207031 11.609375 -4.75 C 11.609375 -3.3125 11.191406 -2.144531 10.359375 -1.25 C 9.535156 -0.363281 8.441406 0.078125 7.078125 0.078125 C 5.535156 0.078125 4.40625 -0.5 3.6875 -1.65625 L 3.6875 3.484375 L 1.625 3.484375 L 1.625 -9.578125 L 3.6875 -9.578125 L 3.6875 -7.921875 C 4.40625 -9.066406 5.519531 -9.640625 7.03125 -9.640625 Z M 4.5 -2.5625 C 5.050781 -1.976562 5.753906 -1.6875 6.609375 -1.6875 C 7.460938 -1.6875 8.160156 -1.976562 8.703125 -2.5625 C 9.242188 -3.144531 9.515625 -3.898438 9.515625 -4.828125 C 9.515625 -5.722656 9.242188 -6.460938 8.703125 -7.046875 C 8.160156 -7.628906 7.460938 -7.921875 6.609375 -7.921875 C 5.753906 -7.921875 5.050781 -7.628906 4.5 -7.046875 C 3.957031 -6.460938 3.6875 -5.722656 3.6875 -4.828125 C 3.6875 -3.898438 3.957031 -3.144531 4.5 -2.5625 Z M 4.5 -2.5625 "/></g></g></g><g fill="#000000" fill-opacity="1"><g transform="translate(499.974821, 75.609799)"><g><path d="M 7.03125 -9.640625 C 8.394531 -9.640625 9.5 -9.1875 10.34375 -8.28125 C 11.1875 -7.382812 11.609375 -6.207031 11.609375 -4.75 C 11.609375 -3.3125 11.191406 -2.144531 10.359375 -1.25 C 9.535156 -0.363281 8.441406 0.078125 7.078125 0.078125 C 5.535156 0.078125 4.40625 -0.5 3.6875 -1.65625 L 3.6875 3.484375 L 1.625 3.484375 L 1.625 -9.578125 L 3.6875 -9.578125 L 3.6875 -7.921875 C 4.40625 -9.066406 5.519531 -9.640625 7.03125 -9.640625 Z M 4.5 -2.5625 C 5.050781 -1.976562 5.753906 -1.6875 6.609375 -1.6875 C 7.460938 -1.6875 8.160156 -1.976562 8.703125 -2.5625 C 9.242188 -3.144531 9.515625 -3.898438 9.515625 -4.828125 C 9.515625 -5.722656 9.242188 -6.460938 8.703125 -7.046875 C 8.160156 -7.628906 7.460938 -7.921875 6.609375 -7.921875 C 5.753906 -7.921875 5.050781 -7.628906 4.5 -7.046875 C 3.957031 -6.460938 3.6875 -5.722656 3.6875 -4.828125 C 3.6875 -3.898438 3.957031 -3.144531 4.5 -2.5625 Z M 4.5 -2.5625 "/></g></g></g><g fill="#000000" fill-opacity="1"><g transform="translate(512.214781, 75.609799)"><g><path d="M 5.640625 -9.640625 C 7.109375 -9.640625 8.304688 -9.191406 9.234375 -8.296875 C 10.160156 -7.410156 10.625 -6.238281 10.625 -4.78125 C 10.625 -3.34375 10.160156 -2.171875 9.234375 -1.265625 C 8.304688 -0.367188 7.109375 0.078125 5.640625 0.078125 C 4.148438 0.078125 2.941406 -0.367188 2.015625 -1.265625 C 1.085938 -2.171875 0.625 -3.34375 0.625 -4.78125 C 0.625 -6.238281 1.085938 -7.410156 2.015625 -8.296875 C 2.941406 -9.191406 4.148438 -9.640625 5.640625 -9.640625 Z M 5.640625 -7.859375 C 4.773438 -7.859375 4.066406 -7.570312 3.515625 -7 C 2.972656 -6.425781 2.703125 -5.679688 2.703125 -4.765625 C 2.703125 -3.847656 2.972656 -3.097656 3.515625 -2.515625 C 4.066406 -1.941406 4.773438 -1.65625 5.640625 -1.65625 C 6.503906 -1.65625 7.203125 -1.941406 7.734375 -2.515625 C 8.273438 -3.097656 8.546875 -3.847656 8.546875 -4.765625 C 8.546875 -5.679688 8.269531 -6.425781 7.71875 -7 C 7.175781 -7.570312 6.484375 -7.859375 5.640625 -7.859375 Z M 5.640625 -7.859375 "/></g></g></g><g fill="#000000" fill-opacity="1"><g transform="translate(523.464757, 75.609799)"><g><path d="M 1.6875 -13.21875 C 1.914062 -13.457031 2.203125 -13.578125 2.546875 -13.578125 C 2.898438 -13.578125 3.191406 -13.457031 3.421875 -13.21875 C 3.648438 -12.988281 3.765625 -12.6875 3.765625 -12.3125 C 3.765625 -11.945312 3.648438 -11.644531 3.421875 -11.40625 C 3.191406 -11.175781 2.898438 -11.0625 2.546875 -11.0625 C 2.203125 -11.0625 1.914062 -11.175781 1.6875 -11.40625 C 1.457031 -11.644531 1.34375 -11.945312 1.34375 -12.3125 C 1.34375 -12.6875 1.457031 -12.988281 1.6875 -13.21875 Z M 3.578125 0 L 1.53125 0 L 1.53125 -9.578125 L 3.578125 -9.578125 Z M 3.578125 0 "/></g></g></g><g fill="#000000" fill-opacity="1"><g transform="translate(528.576741, 75.609799)"><g><path d="M 7.125 -9.640625 C 8.238281 -9.640625 9.109375 -9.3125 9.734375 -8.65625 C 10.367188 -8.007812 10.6875 -7.109375 10.6875 -5.953125 L 10.6875 0 L 8.625 0 L 8.625 -5.375 C 8.625 -6.101562 8.414062 -6.671875 8 -7.078125 C 7.59375 -7.492188 7.03125 -7.703125 6.3125 -7.703125 C 5.550781 -7.691406 4.925781 -7.445312 4.4375 -6.96875 C 3.945312 -6.488281 3.664062 -5.863281 3.59375 -5.09375 L 3.59375 0 L 1.53125 0 L 1.53125 -9.578125 L 3.59375 -9.578125 L 3.59375 -7.734375 C 4.25 -9.003906 5.425781 -9.640625 7.125 -9.640625 Z M 7.125 -9.640625 "/></g></g></g><g fill="#000000" fill-opacity="1"><g transform="translate(540.510708, 75.609799)"><g><path d="M 6.421875 -2.203125 L 6.953125 -0.609375 C 6.160156 -0.140625 5.375 0.09375 4.59375 0.09375 C 3.8125 0.09375 3.164062 -0.140625 2.65625 -0.609375 C 2.15625 -1.078125 1.90625 -1.773438 1.90625 -2.703125 L 1.90625 -7.671875 L 0.5625 -7.671875 L 0.5625 -9.21875 L 1.90625 -9.21875 L 1.90625 -11.84375 L 3.953125 -11.84375 L 3.953125 -9.21875 L 6.78125 -9.21875 L 6.78125 -7.671875 L 3.953125 -7.671875 L 3.953125 -3.078125 C 3.953125 -2.597656 4.035156 -2.257812 4.203125 -2.0625 C 4.378906 -1.875 4.640625 -1.78125 4.984375 -1.78125 C 5.367188 -1.78125 5.847656 -1.921875 6.421875 -2.203125 Z M 6.421875 -2.203125 "/></g></g></g><g fill="#000000" fill-opacity="1"><g transform="translate(547.836689, 75.609799)"><g><path d="M 14.015625 -9.640625 C 15.109375 -9.640625 15.96875 -9.3125 16.59375 -8.65625 C 17.21875 -8 17.53125 -7.097656 17.53125 -5.953125 L 17.53125 0 L 15.46875 0 L 15.46875 -5.375 C 15.46875 -6.113281 15.265625 -6.6875 14.859375 -7.09375 C 14.453125 -7.507812 13.894531 -7.71875 13.1875 -7.71875 C 12.382812 -7.695312 11.742188 -7.40625 11.265625 -6.84375 C 10.796875 -6.289062 10.5625 -5.585938 10.5625 -4.734375 L 10.5625 0 L 8.5 0 L 8.5 -5.375 C 8.5 -6.113281 8.296875 -6.6875 7.890625 -7.09375 C 7.492188 -7.507812 6.945312 -7.71875 6.25 -7.71875 C 5.425781 -7.695312 4.773438 -7.40625 4.296875 -6.84375 C 3.816406 -6.289062 3.578125 -5.585938 3.578125 -4.734375 L 3.578125 0 L 1.53125 0 L 1.53125 -9.578125 L 3.578125 -9.578125 L 3.578125 -7.71875 C 4.210938 -9 5.375 -9.640625 7.0625 -9.640625 C 7.90625 -9.640625 8.613281 -9.4375 9.1875 -9.03125 C 9.757812 -8.632812 10.160156 -8.070312 10.390625 -7.34375 C 10.972656 -8.875 12.179688 -9.640625 14.015625 -9.640625 Z M 14.015625 -9.640625 "/></g></g></g><g fill="#000000" fill-opacity="1"><g transform="translate(566.610629, 75.609799)"><g><path d="M 5.46875 -9.640625 C 7.113281 -9.640625 8.304688 -9.144531 9.046875 -8.15625 C 9.785156 -7.164062 10.085938 -5.78125 9.953125 -4 L 2.71875 -4 C 2.882812 -3.25 3.226562 -2.660156 3.75 -2.234375 C 4.28125 -1.816406 4.925781 -1.609375 5.6875 -1.609375 C 6.769531 -1.609375 7.671875 -1.976562 8.390625 -2.71875 L 9.484375 -1.546875 C 8.503906 -0.460938 7.1875 0.078125 5.53125 0.078125 C 4.050781 0.078125 2.863281 -0.367188 1.96875 -1.265625 C 1.070312 -2.160156 0.625 -3.328125 0.625 -4.765625 C 0.625 -6.210938 1.070312 -7.382812 1.96875 -8.28125 C 2.875 -9.175781 4.039062 -9.628906 5.46875 -9.640625 Z M 2.6875 -5.515625 L 8.15625 -5.515625 C 8.113281 -6.273438 7.851562 -6.875 7.375 -7.3125 C 6.894531 -7.757812 6.265625 -7.984375 5.484375 -7.984375 C 4.734375 -7.984375 4.109375 -7.757812 3.609375 -7.3125 C 3.109375 -6.875 2.800781 -6.273438 2.6875 -5.515625 Z M 2.6875 -5.515625 "/></g></g></g><g fill="#000000" fill-opacity="1"><g transform="translate(577.194583, 75.609799)"><g><path d="M 7.125 -9.640625 C 8.238281 -9.640625 9.109375 -9.3125 9.734375 -8.65625 C 10.367188 -8.007812 10.6875 -7.109375 10.6875 -5.953125 L 10.6875 0 L 8.625 0 L 8.625 -5.375 C 8.625 -6.101562 8.414062 -6.671875 8 -7.078125 C 7.59375 -7.492188 7.03125 -7.703125 6.3125 -7.703125 C 5.550781 -7.691406 4.925781 -7.445312 4.4375 -6.96875 C 3.945312 -6.488281 3.664062 -5.863281 3.59375 -5.09375 L 3.59375 0 L 1.53125 0 L 1.53125 -9.578125 L 3.59375 -9.578125 L 3.59375 -7.734375 C 4.25 -9.003906 5.425781 -9.640625 7.125 -9.640625 Z M 7.125 -9.640625 "/></g></g></g><g fill="#000000" fill-opacity="1"><g transform="translate(589.128573, 75.609799)"><g><path d="M 6.421875 -2.203125 L 6.953125 -0.609375 C 6.160156 -0.140625 5.375 0.09375 4.59375 0.09375 C 3.8125 0.09375 3.164062 -0.140625 2.65625 -0.609375 C 2.15625 -1.078125 1.90625 -1.773438 1.90625 -2.703125 L 1.90625 -7.671875 L 0.5625 -7.671875 L 0.5625 -9.21875 L 1.90625 -9.21875 L 1.90625 -11.84375 L 3.953125 -11.84375 L 3.953125 -9.21875 L 6.78125 -9.21875 L 6.78125 -7.671875 L 3.953125 -7.671875 L 3.953125 -3.078125 C 3.953125 -2.597656 4.035156 -2.257812 4.203125 -2.0625 C 4.378906 -1.875 4.640625 -1.78125 4.984375 -1.78125 C 5.367188 -1.78125 5.847656 -1.921875 6.421875 -2.203125 Z M 6.421875 -2.203125 "/></g></g></g><g fill="#000000" fill-opacity="1"><g transform="translate(596.45453, 75.609799)"><g><path d="M 1.703125 -8.90625 L 0.09375 -8.921875 C 0.125 -10.066406 0.46875 -10.953125 1.125 -11.578125 C 1.789062 -12.203125 2.6875 -12.515625 3.8125 -12.515625 C 4.914062 -12.515625 5.789062 -12.25 6.4375 -11.71875 C 7.09375 -11.195312 7.421875 -10.457031 7.421875 -9.5 C 7.421875 -8.976562 7.320312 -8.507812 7.125 -8.09375 C 6.925781 -7.675781 6.6875 -7.328125 6.40625 -7.046875 C 6.132812 -6.773438 5.859375 -6.503906 5.578125 -6.234375 C 5.304688 -5.972656 5.070312 -5.660156 4.875 -5.296875 C 4.675781 -4.941406 4.578125 -4.546875 4.578125 -4.109375 L 2.984375 -4.109375 C 2.984375 -4.628906 3.070312 -5.097656 3.25 -5.515625 C 3.425781 -5.929688 3.632812 -6.269531 3.875 -6.53125 C 4.113281 -6.800781 4.351562 -7.054688 4.59375 -7.296875 C 4.84375 -7.535156 5.050781 -7.8125 5.21875 -8.125 C 5.394531 -8.445312 5.484375 -8.804688 5.484375 -9.203125 C 5.484375 -9.703125 5.316406 -10.082031 4.984375 -10.34375 C 4.660156 -10.613281 4.210938 -10.75 3.640625 -10.75 C 2.410156 -10.75 1.765625 -10.132812 1.703125 -8.90625 Z M 2.953125 -1.875 C 3.171875 -2.101562 3.441406 -2.21875 3.765625 -2.21875 C 4.085938 -2.21875 4.351562 -2.101562 4.5625 -1.875 C 4.78125 -1.65625 4.890625 -1.378906 4.890625 -1.046875 C 4.890625 -0.691406 4.78125 -0.398438 4.5625 -0.171875 C 4.351562 0.046875 4.085938 0.15625 3.765625 0.15625 C 3.441406 0.15625 3.171875 0.046875 2.953125 -0.171875 C 2.734375 -0.398438 2.625 -0.691406 2.625 -1.046875 C 2.625 -1.378906 2.734375 -1.65625 2.953125 -1.875 Z M 2.953125 -1.875 "/></g></g></g><g fill="#000000" fill-opacity="1"><g transform="translate(145.870996, 490.115802)"><g><path d="M 8.09375 -8.125 L 2.875 -8.125 L 2.875 -5.53125 L 7.546875 -5.53125 L 7.546875 -4.09375 L 2.875 -4.09375 L 2.875 -1.453125 L 8.265625 -1.453125 L 8.265625 0 L 1.265625 0 L 1.265625 -9.578125 L 8.09375 -9.578125 Z M 8.09375 -8.125 "/></g></g></g><g fill="#000000" fill-opacity="1"><g transform="translate(154.844394, 490.115802)"><g><path d="M 5.53125 0 L 5.53125 -0.890625 C 5.007812 -0.253906 4.207031 0.0625 3.125 0.0625 C 2.34375 0.0625 1.71875 -0.144531 1.25 -0.5625 C 0.789062 -0.988281 0.5625 -1.53125 0.5625 -2.1875 C 0.5625 -2.851562 0.800781 -3.378906 1.28125 -3.765625 C 1.769531 -4.160156 2.445312 -4.363281 3.3125 -4.375 L 5.515625 -4.375 L 5.515625 -4.59375 C 5.515625 -5.0625 5.363281 -5.421875 5.0625 -5.671875 C 4.769531 -5.929688 4.34375 -6.0625 3.78125 -6.0625 C 3.070312 -6.0625 2.351562 -5.8125 1.625 -5.3125 L 0.984375 -6.40625 C 1.535156 -6.738281 2.03125 -6.972656 2.46875 -7.109375 C 2.914062 -7.253906 3.460938 -7.328125 4.109375 -7.328125 C 5.046875 -7.328125 5.769531 -7.097656 6.28125 -6.640625 C 6.789062 -6.191406 7.050781 -5.566406 7.0625 -4.765625 L 7.0625 0 Z M 3.453125 -1.171875 C 4.003906 -1.171875 4.472656 -1.300781 4.859375 -1.5625 C 5.242188 -1.820312 5.460938 -2.15625 5.515625 -2.5625 L 5.515625 -3.234375 L 3.546875 -3.234375 C 3.023438 -3.234375 2.640625 -3.15625 2.390625 -3 C 2.148438 -2.851562 2.03125 -2.601562 2.03125 -2.25 C 2.03125 -1.925781 2.15625 -1.664062 2.40625 -1.46875 C 2.664062 -1.269531 3.015625 -1.171875 3.453125 -1.171875 Z M 3.453125 -1.171875 "/></g></g></g><g fill="#000000" fill-opacity="1"><g transform="translate(162.860267, 490.115802)"><g><path d="M 3.34375 -7.34375 C 4.34375 -7.34375 5.1875 -7.097656 5.875 -6.609375 L 5.3125 -5.4375 C 4.613281 -5.863281 3.914062 -6.078125 3.21875 -6.078125 C 2.5 -6.078125 2.140625 -5.835938 2.140625 -5.359375 C 2.140625 -5.117188 2.269531 -4.921875 2.53125 -4.765625 C 2.800781 -4.617188 3.125 -4.488281 3.5 -4.375 C 3.882812 -4.269531 4.265625 -4.144531 4.640625 -4 C 5.015625 -3.863281 5.332031 -3.632812 5.59375 -3.3125 C 5.863281 -3 6 -2.597656 6 -2.109375 C 6 -1.398438 5.734375 -0.859375 5.203125 -0.484375 C 4.671875 -0.117188 4.007812 0.0625 3.21875 0.0625 C 2.664062 0.0625 2.128906 -0.0234375 1.609375 -0.203125 C 1.085938 -0.390625 0.644531 -0.640625 0.28125 -0.953125 L 0.84375 -2.078125 C 1.15625 -1.804688 1.535156 -1.585938 1.984375 -1.421875 C 2.441406 -1.253906 2.875 -1.171875 3.28125 -1.171875 C 3.632812 -1.171875 3.921875 -1.234375 4.140625 -1.359375 C 4.359375 -1.492188 4.46875 -1.691406 4.46875 -1.953125 C 4.46875 -2.222656 4.332031 -2.441406 4.0625 -2.609375 C 3.800781 -2.773438 3.484375 -2.90625 3.109375 -3 C 2.742188 -3.101562 2.375 -3.222656 2 -3.359375 C 1.625 -3.492188 1.304688 -3.71875 1.046875 -4.03125 C 0.785156 -4.351562 0.65625 -4.753906 0.65625 -5.234375 C 0.65625 -5.929688 0.910156 -6.457031 1.421875 -6.8125 C 1.941406 -7.164062 2.582031 -7.34375 3.34375 -7.34375 Z M 3.34375 -7.34375 "/></g></g></g><g fill="#000000" fill-opacity="1"><g transform="translate(169.289377, 490.115802)"><g><path d="M 1.28125 -10.046875 C 1.457031 -10.222656 1.675781 -10.3125 1.9375 -10.3125 C 2.207031 -10.3125 2.425781 -10.222656 2.59375 -10.046875 C 2.769531 -9.867188 2.859375 -9.640625 2.859375 -9.359375 C 2.859375 -9.078125 2.769531 -8.847656 2.59375 -8.671875 C 2.425781 -8.492188 2.207031 -8.40625 1.9375 -8.40625 C 1.675781 -8.40625 1.457031 -8.492188 1.28125 -8.671875 C 1.113281 -8.847656 1.03125 -9.078125 1.03125 -9.359375 C 1.03125 -9.640625 1.113281 -9.867188 1.28125 -10.046875 Z M 2.71875 0 L 1.15625 0 L 1.15625 -7.28125 L 2.71875 -7.28125 Z M 2.71875 0 "/></g></g></g><g fill="#000000" fill-opacity="1"><g transform="translate(173.1742, 490.115802)"><g><path d="M 4.15625 -7.328125 C 5.40625 -7.328125 6.3125 -6.953125 6.875 -6.203125 C 7.4375 -5.453125 7.664062 -4.394531 7.5625 -3.03125 L 2.0625 -3.03125 C 2.1875 -2.46875 2.445312 -2.023438 2.84375 -1.703125 C 3.25 -1.378906 3.742188 -1.21875 4.328125 -1.21875 C 5.140625 -1.21875 5.820312 -1.5 6.375 -2.0625 L 7.203125 -1.171875 C 6.453125 -0.347656 5.453125 0.0625 4.203125 0.0625 C 3.078125 0.0625 2.175781 -0.273438 1.5 -0.953125 C 0.820312 -1.640625 0.484375 -2.53125 0.484375 -3.625 C 0.484375 -4.71875 0.820312 -5.601562 1.5 -6.28125 C 2.1875 -6.96875 3.070312 -7.316406 4.15625 -7.328125 Z M 2.03125 -4.1875 L 6.1875 -4.1875 C 6.164062 -4.769531 5.972656 -5.226562 5.609375 -5.5625 C 5.242188 -5.90625 4.765625 -6.078125 4.171875 -6.078125 C 3.597656 -6.078125 3.117188 -5.90625 2.734375 -5.5625 C 2.359375 -5.226562 2.125 -4.769531 2.03125 -4.1875 Z M 2.03125 -4.1875 "/></g></g></g><g fill="#000000" fill-opacity="1"><g transform="translate(181.217424, 490.115802)"><g><path d="M 3.34375 -7.34375 C 4.34375 -7.34375 5.1875 -7.097656 5.875 -6.609375 L 5.3125 -5.4375 C 4.613281 -5.863281 3.914062 -6.078125 3.21875 -6.078125 C 2.5 -6.078125 2.140625 -5.835938 2.140625 -5.359375 C 2.140625 -5.117188 2.269531 -4.921875 2.53125 -4.765625 C 2.800781 -4.617188 3.125 -4.488281 3.5 -4.375 C 3.882812 -4.269531 4.265625 -4.144531 4.640625 -4 C 5.015625 -3.863281 5.332031 -3.632812 5.59375 -3.3125 C 5.863281 -3 6 -2.597656 6 -2.109375 C 6 -1.398438 5.734375 -0.859375 5.203125 -0.484375 C 4.671875 -0.117188 4.007812 0.0625 3.21875 0.0625 C 2.664062 0.0625 2.128906 -0.0234375 1.609375 -0.203125 C 1.085938 -0.390625 0.644531 -0.640625 0.28125 -0.953125 L 0.84375 -2.078125 C 1.15625 -1.804688 1.535156 -1.585938 1.984375 -1.421875 C 2.441406 -1.253906 2.875 -1.171875 3.28125 -1.171875 C 3.632812 -1.171875 3.921875 -1.234375 4.140625 -1.359375 C 4.359375 -1.492188 4.46875 -1.691406 4.46875 -1.953125 C 4.46875 -2.222656 4.332031 -2.441406 4.0625 -2.609375 C 3.800781 -2.773438 3.484375 -2.90625 3.109375 -3 C 2.742188 -3.101562 2.375 -3.222656 2 -3.359375 C 1.625 -3.492188 1.304688 -3.71875 1.046875 -4.03125 C 0.785156 -4.351562 0.65625 -4.753906 0.65625 -5.234375 C 0.65625 -5.929688 0.910156 -6.457031 1.421875 -6.8125 C 1.941406 -7.164062 2.582031 -7.34375 3.34375 -7.34375 Z M 3.34375 -7.34375 "/></g></g></g><g fill="#000000" fill-opacity="1"><g transform="translate(187.646535, 490.115802)"><g><path d="M 4.875 -1.671875 L 5.28125 -0.46875 C 4.675781 -0.113281 4.078125 0.0625 3.484375 0.0625 C 2.890625 0.0625 2.398438 -0.113281 2.015625 -0.46875 C 1.640625 -0.820312 1.453125 -1.347656 1.453125 -2.046875 L 1.453125 -5.828125 L 0.421875 -5.828125 L 0.421875 -7 L 1.453125 -7 L 1.453125 -9 L 3.015625 -9 L 3.015625 -7 L 5.15625 -7 L 5.15625 -5.828125 L 3.015625 -5.828125 L 3.015625 -2.34375 C 3.015625 -1.976562 3.078125 -1.722656 3.203125 -1.578125 C 3.328125 -1.429688 3.519531 -1.359375 3.78125 -1.359375 C 4.070312 -1.359375 4.4375 -1.460938 4.875 -1.671875 Z M 4.875 -1.671875 "/></g></g></g><g fill="#000000" fill-opacity="1"><g transform="translate(570.338958, 490.115802)"><g><path d="M 5.53125 0 L 3.859375 0 L 0.046875 -9.578125 L 1.78125 -9.578125 L 4.734375 -1.796875 L 7.71875 -9.578125 L 9.390625 -9.578125 Z M 5.53125 0 "/></g></g></g><g fill="#000000" fill-opacity="1"><g transform="translate(579.777438, 490.115802)"><g><path d="M 4.15625 -7.328125 C 5.40625 -7.328125 6.3125 -6.953125 6.875 -6.203125 C 7.4375 -5.453125 7.664062 -4.394531 7.5625 -3.03125 L 2.0625 -3.03125 C 2.1875 -2.46875 2.445312 -2.023438 2.84375 -1.703125 C 3.25 -1.378906 3.742188 -1.21875 4.328125 -1.21875 C 5.140625 -1.21875 5.820312 -1.5 6.375 -2.0625 L 7.203125 -1.171875 C 6.453125 -0.347656 5.453125 0.0625 4.203125 0.0625 C 3.078125 0.0625 2.175781 -0.273438 1.5 -0.953125 C 0.820312 -1.640625 0.484375 -2.53125 0.484375 -3.625 C 0.484375 -4.71875 0.820312 -5.601562 1.5 -6.28125 C 2.1875 -6.96875 3.070312 -7.316406 4.15625 -7.328125 Z M 2.03125 -4.1875 L 6.1875 -4.1875 C 6.164062 -4.769531 5.972656 -5.226562 5.609375 -5.5625 C 5.242188 -5.90625 4.765625 -6.078125 4.171875 -6.078125 C 3.597656 -6.078125 3.117188 -5.90625 2.734375 -5.5625 C 2.359375 -5.226562 2.125 -4.769531 2.03125 -4.1875 Z M 2.03125 -4.1875 "/></g></g></g><g fill="#000000" fill-opacity="1"><g transform="translate(587.820662, 490.115802)"><g><path d="M 2.734375 -7.28125 L 2.734375 -5.828125 C 3.234375 -6.828125 4.070312 -7.328125 5.25 -7.328125 L 5.25 -5.828125 C 4.53125 -5.859375 3.945312 -5.6875 3.5 -5.3125 C 3.050781 -4.945312 2.796875 -4.441406 2.734375 -3.796875 L 2.734375 0 L 1.15625 0 L 1.15625 -7.28125 Z M 2.734375 -7.28125 "/></g></g></g><g fill="#000000" fill-opacity="1"><g transform="translate(593.210175, 490.115802)"><g><path d="M 7.328125 -7.28125 L 4.015625 1 C 3.566406 2.144531 2.78125 2.71875 1.65625 2.71875 C 1.03125 2.71875 0.46875 2.515625 -0.03125 2.109375 L 0.640625 0.890625 C 0.972656 1.128906 1.289062 1.25 1.59375 1.25 C 2.082031 1.25 2.445312 0.976562 2.6875 0.4375 L 2.9375 -0.109375 L -0.0625 -7.28125 L 1.5625 -7.28125 L 3.734375 -1.765625 L 5.75 -7.28125 Z M 7.328125 -7.28125 "/></g></g></g><g fill="#000000" fill-opacity="1"><g transform="translate(600.473698, 490.115802)"><g/></g></g><g fill="#000000" fill-opacity="1"><g transform="translate(604.002872, 490.115802)"><g><path d="M 1.265625 -9.578125 L 5.1875 -9.578125 C 6.613281 -9.578125 7.789062 -9.125 8.71875 -8.21875 C 9.65625 -7.3125 10.125 -6.164062 10.125 -4.78125 C 10.125 -3.394531 9.65625 -2.25 8.71875 -1.34375 C 7.78125 -0.445312 6.585938 0 5.140625 0 L 1.265625 0 Z M 2.875 -8.125 L 2.875 -1.453125 L 5.21875 -1.453125 C 6.15625 -1.453125 6.9375 -1.765625 7.5625 -2.390625 C 8.1875 -3.015625 8.5 -3.804688 8.5 -4.765625 C 8.5 -5.734375 8.175781 -6.535156 7.53125 -7.171875 C 6.894531 -7.804688 6.101562 -8.125 5.15625 -8.125 Z M 2.875 -8.125 "/></g></g></g><g fill="#000000" fill-opacity="1"><g transform="translate(614.604063, 490.115802)"><g><path d="M 1.28125 -10.046875 C 1.457031 -10.222656 1.675781 -10.3125 1.9375 -10.3125 C 2.207031 -10.3125 2.425781 -10.222656 2.59375 -10.046875 C 2.769531 -9.867188 2.859375 -9.640625 2.859375 -9.359375 C 2.859375 -9.078125 2.769531 -8.847656 2.59375 -8.671875 C 2.425781 -8.492188 2.207031 -8.40625 1.9375 -8.40625 C 1.675781 -8.40625 1.457031 -8.492188 1.28125 -8.671875 C 1.113281 -8.847656 1.03125 -9.078125 1.03125 -9.359375 C 1.03125 -9.640625 1.113281 -9.867188 1.28125 -10.046875 Z M 2.71875 0 L 1.15625 0 L 1.15625 -7.28125 L 2.71875 -7.28125 Z M 2.71875 0 "/></g></g></g><g fill="#000000" fill-opacity="1"><g transform="translate(618.488886, 490.115802)"><g><path d="M 4 -8.84375 C 3.71875 -8.84375 3.484375 -8.757812 3.296875 -8.59375 C 3.109375 -8.4375 3.015625 -8.191406 3.015625 -7.859375 L 3.015625 -7 L 4.921875 -7 L 4.921875 -5.828125 L 3.015625 -5.828125 L 3.015625 0 L 1.46875 0 L 1.46875 -5.828125 L 0.5 -5.828125 L 0.5 -7 L 1.46875 -7 L 1.46875 -7.71875 C 1.46875 -8.519531 1.710938 -9.132812 2.203125 -9.5625 C 2.691406 -10 3.28125 -10.21875 3.96875 -10.21875 C 4.601562 -10.21875 5.148438 -10.046875 5.609375 -9.703125 L 5 -8.5 C 4.695312 -8.726562 4.363281 -8.84375 4 -8.84375 Z M 4 -8.84375 "/></g></g></g><g fill="#000000" fill-opacity="1"><g transform="translate(623.180771, 490.115802)"><g><path d="M 4 -8.84375 C 3.71875 -8.84375 3.484375 -8.757812 3.296875 -8.59375 C 3.109375 -8.4375 3.015625 -8.191406 3.015625 -7.859375 L 3.015625 -7 L 4.921875 -7 L 4.921875 -5.828125 L 3.015625 -5.828125 L 3.015625 0 L 1.46875 0 L 1.46875 -5.828125 L 0.5 -5.828125 L 0.5 -7 L 1.46875 -7 L 1.46875 -7.71875 C 1.46875 -8.519531 1.710938 -9.132812 2.203125 -9.5625 C 2.691406 -10 3.28125 -10.21875 3.96875 -10.21875 C 4.601562 -10.21875 5.148438 -10.046875 5.609375 -9.703125 L 5 -8.5 C 4.695312 -8.726562 4.363281 -8.84375 4 -8.84375 Z M 4 -8.84375 "/></g></g></g><g fill="#000000" fill-opacity="1"><g transform="translate(627.872655, 490.115802)"><g><path d="M 1.28125 -10.046875 C 1.457031 -10.222656 1.675781 -10.3125 1.9375 -10.3125 C 2.207031 -10.3125 2.425781 -10.222656 2.59375 -10.046875 C 2.769531 -9.867188 2.859375 -9.640625 2.859375 -9.359375 C 2.859375 -9.078125 2.769531 -8.847656 2.59375 -8.671875 C 2.425781 -8.492188 2.207031 -8.40625 1.9375 -8.40625 C 1.675781 -8.40625 1.457031 -8.492188 1.28125 -8.671875 C 1.113281 -8.847656 1.03125 -9.078125 1.03125 -9.359375 C 1.03125 -9.640625 1.113281 -9.867188 1.28125 -10.046875 Z M 2.71875 0 L 1.15625 0 L 1.15625 -7.28125 L 2.71875 -7.28125 Z M 2.71875 0 "/></g></g></g><g fill="#000000" fill-opacity="1"><g transform="translate(631.757478, 490.115802)"><g><path d="M 4.140625 -7.328125 C 5.453125 -7.328125 6.457031 -6.929688 7.15625 -6.140625 L 6.296875 -5.125 C 5.742188 -5.6875 5.050781 -5.960938 4.21875 -5.953125 C 3.582031 -5.953125 3.0625 -5.734375 2.65625 -5.296875 C 2.25 -4.867188 2.046875 -4.3125 2.046875 -3.625 C 2.046875 -2.9375 2.25 -2.375 2.65625 -1.9375 C 3.0625 -1.507812 3.582031 -1.296875 4.21875 -1.296875 C 5.144531 -1.296875 5.859375 -1.585938 6.359375 -2.171875 L 7.234375 -1.296875 C 6.546875 -0.390625 5.515625 0.0625 4.140625 0.0625 C 3.054688 0.0625 2.175781 -0.273438 1.5 -0.953125 C 0.820312 -1.640625 0.484375 -2.53125 0.484375 -3.625 C 0.484375 -4.726562 0.820312 -5.617188 1.5 -6.296875 C 2.175781 -6.984375 3.054688 -7.328125 4.140625 -7.328125 Z M 4.140625 -7.328125 "/></g></g></g><g fill="#000000" fill-opacity="1"><g transform="translate(639.472413, 490.115802)"><g><path d="M 7.765625 -7.28125 L 7.765625 0 L 6.1875 0 L 6.1875 -1.421875 C 5.71875 -0.453125 4.851562 0.0390625 3.59375 0.0625 C 2.769531 0.0625 2.117188 -0.1875 1.640625 -0.6875 C 1.171875 -1.195312 0.9375 -1.882812 0.9375 -2.75 L 0.9375 -7.28125 L 2.5 -7.28125 L 2.5 -3.1875 C 2.5 -2.632812 2.648438 -2.203125 2.953125 -1.890625 C 3.253906 -1.578125 3.671875 -1.421875 4.203125 -1.421875 C 4.804688 -1.429688 5.285156 -1.644531 5.640625 -2.0625 C 6.003906 -2.488281 6.1875 -3.03125 6.1875 -3.6875 L 6.1875 -7.28125 Z M 7.765625 -7.28125 "/></g></g></g><g fill="#000000" fill-opacity="1"><g transform="translate(648.40477, 490.115802)"><g><path d="M 2.796875 0 L 1.234375 0 L 1.234375 -10.140625 L 2.796875 -10.140625 Z M 2.796875 0 "/></g></g></g><g fill="#000000" fill-opacity="1"><g transform="translate(652.440066, 490.115802)"><g><path d="M 4.875 -1.671875 L 5.28125 -0.46875 C 4.675781 -0.113281 4.078125 0.0625 3.484375 0.0625 C 2.890625 0.0625 2.398438 -0.113281 2.015625 -0.46875 C 1.640625 -0.820312 1.453125 -1.347656 1.453125 -2.046875 L 1.453125 -5.828125 L 0.421875 -5.828125 L 0.421875 -7 L 1.453125 -7 L 1.453125 -9 L 3.015625 -9 L 3.015625 -7 L 5.15625 -7 L 5.15625 -5.828125 L 3.015625 -5.828125 L 3.015625 -2.34375 C 3.015625 -1.976562 3.078125 -1.722656 3.203125 -1.578125 C 3.328125 -1.429688 3.519531 -1.359375 3.78125 -1.359375 C 4.070312 -1.359375 4.4375 -1.460938 4.875 -1.671875 Z M 4.875 -1.671875 "/></g></g></g></svg>