<svg width="24" height="24" viewBox="0 0 24 24" fill="none" xmlns="http://www.w3.org/2000/svg">
<path d="M17.3654 5.32894C17.8831 5.54543 18.3534 5.86273 18.7495 6.26274C19.146 6.6625 19.4604 7.13723 19.675 7.65978C19.8895 8.18233 20 8.74246 20 9.30814C20 9.87384 19.8895 10.4339 19.675 10.9565C19.4604 11.4791 19.146 11.9538 18.7495 12.3535L12.0001 19L5.2496 12.3535C4.44951 11.5457 4 10.4501 4 9.3076C4 8.16516 4.44951 7.0695 5.2496 6.26166C6.04975 5.45384 7.13498 5 8.26647 5C9.39804 5 10.4833 5.45384 11.2833 6.26166L12.016 6.99843L12.7158 6.26274C13.112 5.86273 13.5823 5.54543 14.0999 5.32894C14.6176 5.11246 15.1724 5.00103 15.7327 5.00103C16.2929 5.00103 16.8478 5.11246 17.3654 5.32894Z" stroke="black" stroke-width="1.5" stroke-linecap="round" stroke-linejoin="round"/>
</svg>
