<svg width="48" height="48" viewBox="0 0 48 48" fill="none" xmlns="http://www.w3.org/2000/svg">
    <path d="M24 9.5C15.9922 9.5 9.5 15.9922 9.5 24C9.5 32.0078 15.9922 38.5 24 38.5C32.0078 38.5 38.5 32.0078 38.5 24C38.5 15.9922 32.0078 9.5 24 9.5ZM24 36.5C17.0969 36.5 11.5 30.9031 11.5 24C11.5 17.0969 17.0969 11.5 24 11.5C30.9031 11.5 36.5 17.0969 36.5 24C36.5 30.9031 30.9031 36.5 24 36.5Z" fill="#5B21B6"/>
    <path d="M27.5 20.5H26.5V19.5C26.5 18.1219 25.3781 17 24 17C22.6219 17 21.5 18.1219 21.5 19.5V20.5H20.5C19.6719 20.5 19 21.1719 19 22V28C19 28.8281 19.6719 29.5 20.5 29.5H27.5C28.3281 29.5 29 28.8281 29 28V22C29 21.1719 28.3281 20.5 27.5 20.5ZM23.5 19.5C23.5 19.2239 23.7239 19 24 19C24.2761 19 24.5 19.2239 24.5 19.5V20.5H23.5V19.5ZM27 27.5H21V22.5H27V27.5Z" fill="#5B21B6"/>
</svg>
