<svg width="48" height="48" viewBox="0 0 48 48" fill="none" xmlns="http://www.w3.org/2000/svg">
    <path d="M35.7656 12.9219C35.7188 12.7344 35.5781 12.5938 35.3906 12.5469L31.5469 11.7656L29.4375 9.65625C29.3438 9.5625 29.2031 9.51562 29.0625 9.51562C28.9219 9.51562 28.7812 9.5625 28.6875 9.65625L26.5781 11.7656L22.7344 12.5469C22.5469 12.5938 22.4062 12.7344 22.3594 12.9219C22.3125 13.1094 22.3594 13.2969 22.5 13.4375L24.6094 15.5469L23.8281 19.3906C23.7812 19.5781 23.8281 19.7656 23.9688 19.9062C24.1094 20.0469 24.2969 20.0938 24.4844 20.0469L28.3281 18.2656L32.1719 20.0469C32.3594 20.0938 32.5469 20.0469 32.6875 19.9062C32.8281 19.7656 32.875 19.5781 32.8281 19.3906L32.0469 15.5469L34.1562 13.4375C34.2969 13.2969 34.3438 13.1094 34.2969 12.9219ZM29.0625 16.7969L29.5312 18.9062L27.4219 17.9688L25.3125 18.9062L25.7812 16.7969L24.1406 15.1562L26.25 14.7344L27.4219 12.8594L28.5938 14.7344L30.7031 15.1562L29.0625 16.7969Z" fill="#5B21B6"/>
    <path d="M38.3438 24.0469C38.2969 23.8594 38.1562 23.7188 37.9688 23.6719L34.125 22.8906L32.0156 20.7812C31.9219 20.6875 31.7812 20.6406 31.6406 20.6406C31.5 20.6406 31.3594 20.6875 31.2656 20.7812L29.1562 22.8906L25.3125 23.6719C25.125 23.7188 24.9844 23.8594 24.9375 24.0469C24.8906 24.2344 24.9375 24.4219 25.0781 24.5625L27.1875 26.6719L26.4062 30.5156C26.3594 30.7031 26.4062 30.8906 26.5469 31.0312C26.6875 31.1719 26.875 31.2188 27.0625 31.1719L30.9062 29.3906L34.75 31.1719C34.9375 31.2188 35.125 31.1719 35.2656 31.0312C35.4062 30.8906 35.4531 30.7031 35.4062 30.5156L34.625 26.6719L36.7344 24.5625C36.875 24.4219 36.9219 24.2344 36.875 24.0469ZM31.6406 27.9219L32.1094 30.0312L30 29.0938L27.8906 30.0312L28.3594 27.9219L26.7188 26.2812L28.8281 25.8594L30 24.0312L31.1719 25.8594L33.2812 26.2812L31.6406 27.9219Z" fill="#5B21B6"/>
</svg>
